<svg xmlns="http://www.w3.org/2000/svg" viewBox="0 0 24 24"><path style="fill:#efeeeb;" d="M15.449,0l-2.804,2.802.828.827-.65.648-.823-.827L0,15.449l2.315,2.317c1.448-.742,2.856-.594,3.684.234.828.828.975,2.235.234,3.683l2.317,2.317,11.995-11.995-.823-.828.65-.65.828.823,2.799-2.799-2.317-2.317c-1.448.742-2.855.594-3.683-.234s-.975-2.236-.234-3.684l-2.317-2.315ZM14.626,4.775l1.722,1.727-.65.65-1.722-1.727.65-.65ZM12,5.608l6.391,6.391-8.114,8.119-6.398-6.396,7.796-7.794.325-.32ZM12,6.899l-6.828,6.823,5.106,5.106,6.823-6.828-5.101-5.101ZM17.497,7.651l1.727,1.722-.65.65-1.727-1.722.65-.65Z"/></svg>