<svg width="342" height="342" viewBox="0 0 342 342" fill="none" xmlns="http://www.w3.org/2000/svg">
<g clip-path="url(#clip0_309_7805)">
<path d="M108.5 276.342C108.571 276.836 108.14 277.864 107.761 278.192C107.432 278.481 107.143 278.442 106.747 278.38C104.527 278.043 103.366 275.559 101.632 275.072C101.409 277.563 103.435 283.174 99.699 283.341C98.4546 283.106 97.8838 281.491 97.558 280.426C97.3915 279.376 97.8765 278.312 97.9598 277.265C97.9647 277.216 97.9745 277 97.9304 277.022C96.8428 279.122 96.1863 281.437 95.0986 283.612C94.861 284.129 94.4911 284.63 93.9645 284.86C93.7514 284.953 93.5187 285.007 93.2737 284.997C90.5154 284.425 92.8646 280.737 94.0061 278.495C94.6063 277.255 95.2726 275.987 93.4427 276.455C92.9797 276.577 92.5609 276.743 92.164 276.995C91.243 277.529 89.6287 277.712 88.786 277.196C87.9728 276.741 88.2422 275.686 88.7052 275.045C90.4567 272.079 96.6027 272.473 95.3975 269.647C95.0399 268.837 94.1751 268.159 93.4648 267.638C92.2106 267.263 90.2705 268.259 88.9991 268.558C75.5092 271.35 74.8943 279.653 59.6652 270.75C57.5046 269.515 56.2553 267.134 57.485 264.858C61.6395 257.715 71.9646 258.5 79.1419 259.298C79.4041 259.313 79.6539 259.249 79.8915 259.117C81.06 258.429 81.8855 256.457 82.0962 255.153C82.2015 254.208 81.2168 253.525 80.4941 253.065C80.112 252.759 79.6931 252.98 79.5559 253.452C79.3428 254.044 79.2963 254.697 79.066 255.29C77.2117 259.653 74.3603 258.532 75.35 254.609C75.5729 253.895 76.2882 252.847 75.7468 252.231C74.2648 251.093 69.466 251.871 69.7747 249.255C70.0711 246.71 74.9384 248.709 75.519 248.24C75.715 248.105 75.1834 247.567 74.9972 247.395C71.0191 243.414 74.2035 238.571 77.2876 244.831C77.3292 244.912 77.3611 244.985 77.3905 244.958C77.4566 243.142 76.1975 240.252 77.5522 238.471C78.3213 237.786 79.4285 238.75 79.8499 239.406C80.8395 240.886 79.7396 243.629 80.8346 244.997C81.1898 244.699 81.6724 244.026 82.0521 243.639C82.2333 243.46 82.373 243.27 82.4905 243.042C82.8237 242.337 83.5806 241.689 84.3743 242.127C87.4387 243.605 82.8947 246.654 82.3779 248.866C82.4146 249.27 82.6963 249.637 82.9462 249.948C84.9524 252.121 87.6494 248.022 88.9134 246.798C89.9471 245.592 91.314 244.733 92.6221 243.801C93.2492 243.297 93.9914 242.854 94.403 242.161C94.3687 241.762 94.0306 241.52 93.7514 241.092C93.4476 240.69 93.2125 240.431 93.0042 240.081C92.7887 239.687 92.6221 239.085 92.2865 238.782C90.5399 238.136 89.4352 242.741 87.2134 242.922C86.5618 243.059 85.7485 242.988 85.4154 242.34C84.3743 239.824 88.6488 238.255 88.9305 236.268C89.0555 235.872 88.639 235.708 88.3524 235.561C87.9164 235.304 87.4755 235.123 86.9807 235.008C81.398 232.862 83.4851 228.548 88.2447 230.802C88.8889 231.066 90.4493 231.9 91.0005 231.502C91.3459 231.166 90.9172 230.474 90.7653 230.099C88.1687 224.652 93.188 223.497 94.7435 229.652C95.0546 231.673 96.3283 228.773 96.7546 228.088C97.3229 227.165 97.901 226.113 98.9935 226.02C102.232 226.796 99.6916 230.41 98.1215 232.055C97.8153 232.375 98.1582 232.326 98.4203 232.307C102.805 232.287 101.749 236.897 97.9598 236.332C97.5605 236.357 97.22 236.459 97.198 236.846C97.2886 237.945 98.2096 239.359 99.4222 239.349C99.8631 239.332 100.235 239.024 100.654 238.909C103.697 237.813 107.146 236.785 110.313 236.949C110.769 236.675 110.715 236.019 110.857 235.561C111.989 230.175 128.832 196.812 127.09 217.935C125.528 228.438 122.115 238.703 116.866 247.948C116.506 248.482 117.027 249.02 117.302 249.471C117.9 250.175 118.527 250.763 119.164 251.394C122.287 254.387 122.689 253.354 124.371 249.025C124.504 248.7 124.638 248.345 124.761 248.046C124.834 247.75 125.141 247.574 125.439 247.54C127.867 247.251 127.154 250.745 126.358 252.299C124.878 254.876 126.206 255.407 128.648 255.62C129.636 255.762 130.897 255.98 131 257.125V257.13C130.924 258.645 128.648 259.352 127.355 258.906C125.052 257.641 122.87 257.658 125.047 260.179C125.542 260.901 125.812 261.62 125.785 262.523C125.785 262.822 125.824 263.12 125.841 263.414C125.89 264.231 125.229 265.254 124.391 264.701C123.749 264.226 123.284 263.24 122.848 262.626C122.539 262.146 122.368 261.598 122.005 261.141C120.687 259.357 120.094 263.412 119.911 264.743C119.849 265.188 119.782 265.523 119.712 265.746C119.524 266.387 119.102 267.026 118.411 267.212C115.901 267.855 115.955 263.003 116.922 261.329C117.025 260.95 116.873 260.531 116.41 260.629C115.817 260.725 115.078 261.241 114.492 261.52C113.412 262.088 111.237 262.545 110.781 261.574C110.022 257.411 121.704 258.021 114.818 253.104C114.323 252.72 113.836 252.564 113.218 252.681C112.981 252.723 112.763 252.852 112.616 253.043C109.235 257.827 104.424 261.322 99.5055 264.434C98.5207 265.019 98.5697 266.495 99.0597 267.442C99.3805 268.059 99.9489 268.533 100.622 268.406C102.423 267.471 104.983 263.142 106.798 264.305C107.974 265.286 107.677 266.236 106.969 267.42C106.497 268.257 105.811 268.913 105.029 269.466C104.588 269.833 104.221 270.251 103.763 270.601C102.131 272.414 106.646 273.251 107.567 274.446C107.949 274.942 108.407 275.676 108.503 276.342H108.5Z" fill="#303030" fill-opacity="0.2"/>
</g>
<g clip-path="url(#clip1_309_7805)">
<path d="M233.5 65.658C233.429 65.1637 233.86 64.1359 234.239 63.808C234.568 63.5192 234.857 63.5584 235.253 63.6196C237.473 63.9573 238.634 66.4411 240.368 66.928C240.591 64.4369 238.565 58.8257 242.301 58.6593C243.545 58.8942 244.116 60.5093 244.442 61.5738C244.609 62.6236 244.124 63.6881 244.04 64.7355C244.035 64.7844 244.026 64.9997 244.07 64.9777C245.157 62.8781 245.814 60.5632 246.901 58.3877C247.139 57.8714 247.509 57.3697 248.036 57.1397C248.249 57.0467 248.481 56.9929 248.726 57.0026C251.485 57.5753 249.135 61.263 247.994 63.5046C247.394 64.7452 246.727 66.0128 248.557 65.5454C249.02 65.4231 249.439 65.2567 249.836 65.0046C250.757 64.4712 252.371 64.2876 253.214 64.804C254.027 65.2591 253.758 66.3138 253.295 66.955C251.543 69.9208 245.397 69.5268 246.603 72.3532C246.96 73.1632 247.825 73.8411 248.535 74.3623C249.789 74.7367 251.73 73.7407 253.001 73.4422C266.491 70.6501 267.106 62.3471 282.335 71.2496C284.495 72.4854 285.745 74.8664 284.515 77.1422C280.36 84.2852 270.035 83.4997 262.858 82.702C262.596 82.6873 262.346 82.7509 262.108 82.8831C260.94 83.5707 260.115 85.543 259.904 86.8473C259.799 87.7919 260.783 88.4747 261.506 88.9347C261.888 89.2406 262.307 89.0204 262.444 88.5481C262.657 87.9559 262.704 87.3025 262.934 86.7103C264.788 82.3471 267.64 83.4679 266.65 87.3906C266.427 88.1052 265.712 89.1525 266.253 89.7692C267.735 90.9071 272.534 90.1289 272.225 92.7448C271.929 95.2898 267.062 93.2905 266.481 93.7604C266.285 93.895 266.817 94.4333 267.003 94.6046C270.981 98.586 267.796 103.429 264.712 97.1692C264.671 97.0884 264.639 97.015 264.61 97.0419C264.543 98.8577 265.802 101.748 264.448 103.529C263.679 104.214 262.571 103.25 262.15 102.594C261.16 101.114 262.26 98.3707 261.165 97.0028C260.81 97.3013 260.328 97.9743 259.948 98.3609C259.767 98.5395 259.627 98.7304 259.509 98.958C259.176 99.6628 258.419 100.311 257.626 99.8732C254.561 98.3952 259.105 95.3461 259.622 93.1339C259.585 92.7302 259.304 92.3631 259.054 92.0523C257.048 89.8793 254.351 93.9782 253.087 95.2017C252.053 96.4081 250.686 97.2671 249.378 98.1994C248.751 98.7035 248.009 99.1464 247.597 99.8389C247.631 100.238 247.969 100.48 248.249 100.908C248.552 101.31 248.788 101.569 248.996 101.919C249.211 102.313 249.378 102.915 249.713 103.218C251.46 103.864 252.565 99.259 254.787 99.0779C255.438 98.9409 256.251 99.0118 256.585 99.6603C257.626 102.176 253.351 103.745 253.069 105.732C252.945 106.128 253.361 106.292 253.648 106.439C254.084 106.696 254.525 106.877 255.019 106.992C260.602 109.138 258.515 113.452 253.755 111.198C253.111 110.934 251.551 110.1 251 110.498C250.654 110.834 251.083 111.526 251.235 111.901C253.831 117.348 248.812 118.503 247.257 112.348C246.945 110.327 245.672 113.227 245.245 113.912C244.677 114.835 244.099 115.887 243.006 115.98C239.768 115.204 242.308 111.59 243.879 109.945C244.185 109.625 243.842 109.674 243.58 109.693C239.195 109.713 240.251 105.103 244.04 105.668C244.44 105.643 244.78 105.541 244.802 105.154C244.711 104.055 243.79 102.641 242.578 102.651C242.137 102.668 241.765 102.976 241.346 103.091C238.303 104.187 234.854 105.215 231.687 105.051C231.231 105.325 231.285 105.981 231.143 106.439C230.011 111.825 213.168 145.188 214.91 124.065C216.472 113.562 219.885 103.297 225.134 94.0516C225.494 93.5181 224.973 92.9798 224.698 92.5295C224.1 91.8247 223.473 91.2374 222.836 90.6061C219.713 87.6133 219.311 88.646 217.629 92.9749C217.496 93.3003 217.362 93.6552 217.239 93.9537C217.166 94.2498 216.859 94.426 216.561 94.4602C214.133 94.749 214.846 91.2546 215.642 89.7007C217.122 87.1239 215.794 86.5928 213.352 86.38C212.364 86.238 211.103 86.0202 211 84.875V84.8701C211.076 83.3554 213.352 82.6481 214.645 83.0935C216.948 84.3587 219.13 84.3415 216.953 81.821C216.458 81.0991 216.188 80.3797 216.215 79.4767C216.215 79.1782 216.176 78.8796 216.159 78.586C216.11 77.7687 216.771 76.7458 217.609 77.2988C218.251 77.7735 218.716 78.7597 219.152 79.3739C219.461 79.8536 219.632 80.4017 219.995 80.8593C221.313 82.6432 221.906 78.5884 222.089 77.2572C222.151 76.8118 222.218 76.4774 222.288 76.2539C222.476 75.6128 222.898 74.9741 223.589 74.7881C226.099 74.1445 226.045 78.9971 225.078 80.6709C224.975 81.0502 225.127 81.4686 225.59 81.3708C226.183 81.2753 226.922 80.759 227.508 80.48C228.588 79.9123 230.763 79.4547 231.219 80.4262C231.978 84.5887 220.296 83.9794 227.182 88.8956C227.677 89.2798 228.164 89.4364 228.782 89.3189C229.019 89.2773 229.237 89.1476 229.384 88.9567C232.765 84.1727 237.576 80.6782 242.495 77.5655C243.479 76.9807 243.43 75.5051 242.94 74.5581C242.619 73.9414 242.051 73.4667 241.378 73.5939C239.577 74.5287 237.017 78.8576 235.202 77.6952C234.026 76.714 234.323 75.7645 235.031 74.5801C235.503 73.7432 236.189 73.0874 236.971 72.5343C237.412 72.1673 237.779 71.7488 238.237 71.3989C239.869 69.5856 235.354 68.7487 234.433 67.5545C234.051 67.0577 233.593 66.3236 233.497 65.658H233.5Z" fill="#303030" fill-opacity="0.2"/>
</g>
<defs>
<clipPath id="clip0_309_7805">
<rect width="74" height="74" fill="white" transform="matrix(0 1 -1 0 131 211)"/>
</clipPath>
<clipPath id="clip1_309_7805">
<rect width="74" height="74" fill="white" transform="matrix(0 -1 1 0 211 131)"/>
</clipPath>
</defs>
</svg>
